<svg width="20.000000" height="20.000000" viewBox="0 0 20 20" fill="none" xmlns="http://www.w3.org/2000/svg" xmlns:xlink="http://www.w3.org/1999/xlink">
	<defs/>
	<circle id="Ellipse 5" cx="10.000000" cy="10.000000" r="10.000000" fill="#BBBBBB" fill-opacity="1.000000"/>
	<path id="Vector" d="M15.96 8.53C15.89 8.28 15.67 8.1 15.42 8.07L11.95 7.74L10.58 4.4C10.48 4.15 10.25 4 10 4C9.74 4 9.51 4.15 9.41 4.4L8.04 7.74L4.57 8.07C4.32 8.1 4.1 8.28 4.03 8.53C3.95 8.78 4.02 9.06 4.21 9.24L6.83 11.63L6.06 15.18C6 15.44 6.1 15.71 6.31 15.87C6.42 15.95 6.55 16 6.68 16C6.8 16 6.91 15.96 7.01 15.9L10 14.04L12.98 15.9C13.2 16.04 13.48 16.02 13.68 15.87C13.89 15.71 13.99 15.44 13.93 15.18L13.16 11.63L15.78 9.24C15.97 9.06 16.04 8.78 15.96 8.53Z" fill="#FFFFFF" fill-opacity="1.000000" fill-rule="nonzero"/>
	<path id="Vector" d="" fill="#7653FC" fill-opacity="0" fill-rule="evenodd"/>
</svg>
