<svg width="24.000000" height="22.498291" viewBox="0 0 24 22.4983" fill="#787D85" xmlns="http://www.w3.org/2000/svg" xmlns:xlink="http://www.w3.org/1999/xlink">
	<defs>
		<clipPath id="clip1908_1571">
			<rect width="24.000000" height="22.498230" fill="white" fill-opacity="0"/>
		</clipPath>
	</defs>
	<rect width="24.000000" height="22.498230" fill="#FFFFFF" fill-opacity="0"/>
	<g clip-path="url(#clip1908_1571)">
		<path d="M15.08 4.16L6.92 8.08L3.67 6.59L11.69 2.87C11.87 2.79 12.09 2.79 12.28 2.87L15.08 4.16Z"  fill-opacity="1.000000" fill-rule="nonzero"/>
		<path d="M20.31 6.59L12 10.45L8.89 9.01L8.44 8.79L16.61 4.87L17.07 5.09L20.31 6.59Z" fill="#787D85" fill-opacity="1.000000" fill-rule="nonzero"/>
		<path d="M11.33 11.56L11.32 19.68L3.36 15.79C3.14 15.68 3 15.45 3 15.21L3 7.7L6.37 9.26L6.37 12C6.37 12.35 6.67 12.64 7.04 12.64C7.41 12.64 7.72 12.35 7.72 12L7.72 9.89L8.17 10.09L11.33 11.56Z" fill="#787D85" fill-opacity="1.000000" fill-rule="nonzero"/>
		<path d="M20.99 7.71L12.68 11.55L12.67 19.67L21 15.6L20.99 7.71Z" fill="#787D85" fill-opacity="1.000000" fill-rule="nonzero"/>
	</g>
</svg>
