<svg width="24.000000" height="20.505981" viewBox="0 0 24 20.506" fill="#787D85" xmlns="http://www.w3.org/2000/svg" xmlns:xlink="http://www.w3.org/1999/xlink">
	<defs/>
	<path d="M12 11.14L5.67 8.6L5.67 10.43C5.67 12.44 8.39 13.95 12 13.95C15.6 13.95 18.32 12.44 18.32 10.43L18.32 8.6L12 11.14Z"  fill-opacity="1.000000" fill-rule="nonzero"/>
	<path d="M24 14.65C24 13.74 23.41 12.96 22.59 12.67L22.59 5.39L24 4.81L12 0L0 4.81L12 9.62L21.18 5.95L21.18 12.67C20.37 12.96 19.78 13.74 19.78 14.65C19.78 15.49 20.27 16.21 20.98 16.55L19.81 20.06L21.15 20.5L21.89 18.28L22.62 20.5L23.96 20.06L22.79 16.55C23.5 16.21 24 15.49 24 14.65Z" fill="#787D85" fill-opacity="1.000000" fill-rule="nonzero"/>
</svg>
